<svg width="148" height="26" viewBox="0 0 148 26" fill="none" xmlns="http://www.w3.org/2000/svg">
<path fillRule="evenodd" clipRule="evenodd" d="M54.9501 0.432623C55.0108 0.436538 55.0412 0.484501 55.0187 0.538337C54.9951 0.592173 52.8399 2.13384 45.4802 7.29231L49.2291 7.34908C52.3214 7.39704 53.081 7.43522 53.5661 7.57127C53.8896 7.66231 54.3973 7.83164 54.6933 7.94617C54.9893 8.06167 55.5411 8.33477 55.9184 8.55305C56.2958 8.77133 56.9083 9.23725 57.2788 9.58963C57.6503 9.94104 58.1413 10.4931 58.3697 10.8161C58.599 11.1391 58.9176 11.6677 59.0783 11.9907C59.239 12.3137 59.4615 12.8648 59.5742 13.2143C59.686 13.5637 59.832 14.1148 59.8996 14.4378C59.9663 14.7608 60.0212 15.5977 60.0212 16.2976C60.0212 16.9975 59.9663 17.8344 59.8996 18.1574C59.832 18.4804 59.686 19.0315 59.5742 19.3809C59.4615 19.7304 59.239 20.2815 59.0783 20.6045C58.9176 20.9275 58.599 21.4561 58.3697 21.7791C58.1413 22.1021 57.6503 22.6532 57.2788 23.0036C56.9083 23.355 56.3399 23.8023 56.0164 24.0001C55.693 24.1968 55.0971 24.4914 54.6933 24.6539C54.2885 24.8164 53.5612 25.018 53.0761 25.1022C52.3753 25.2246 51.403 25.2559 44.5001 25.2539L44.4511 8.0186L41.0697 10.3756L41.2608 10.7916C41.3657 11.0207 41.5274 11.4935 41.6215 11.8439C41.7332 12.2638 41.7911 12.8462 41.7911 13.5569C41.7911 14.2636 41.7323 14.8519 41.6225 15.2698C41.5294 15.6193 41.352 16.1263 41.2275 16.3955C41.103 16.6647 40.807 17.1384 40.5698 17.4477C40.3327 17.757 39.8955 18.1936 39.5995 18.4168C39.3035 18.6399 38.7851 18.9483 38.4479 19.102C38.1107 19.2556 37.5599 19.4494 37.2228 19.5326C36.8444 19.6266 35.8692 19.7108 32.7378 19.8214L32.7387 25.2539H28.7203L28.6713 19.1088L25.6692 21.227C24.0187 22.3918 22.5181 23.4774 22.3358 23.6389C22.1535 23.8004 21.785 24.0735 21.5155 24.2467C21.2469 24.419 20.751 24.6725 20.4138 24.8096C20.0767 24.9466 19.5474 25.1257 19.2377 25.2079C18.928 25.2902 18.2439 25.4008 17.7185 25.4527C17.0687 25.5173 16.4414 25.5133 15.7583 25.4419C15.2055 25.3832 14.3783 25.2256 13.9206 25.0915C13.4619 24.9574 12.7788 24.6921 12.4014 24.5012C12.0241 24.3113 11.5164 24.0196 11.2743 23.8542C11.0312 23.6878 10.5529 23.2855 10.2099 22.9596C9.86684 22.6336 9.39736 22.1021 9.16704 21.7791C8.93769 21.4561 8.61131 20.9167 8.44371 20.58C8.27513 20.2433 8.03207 19.6051 7.90171 19.1607C7.77234 18.7163 7.61552 17.9127 7.55475 17.3743C7.47536 16.6715 7.47242 16.1057 7.54593 15.3677C7.6018 14.8019 7.73803 14.0101 7.84781 13.6058C7.95758 13.2025 8.24279 12.4752 8.47998 11.9907C8.71717 11.5062 9.16998 10.8014 9.48557 10.4246C9.80117 10.0477 10.3657 9.48392 10.7401 9.17069C11.1194 8.85453 11.8555 8.3886 12.4014 8.11942C12.9405 7.85416 13.7344 7.53897 14.1656 7.42053C14.8321 7.23553 15.2065 7.20323 16.6649 7.19932C18.1762 7.1954 18.4732 7.22183 19.1642 7.42151C19.5954 7.54582 20.3011 7.81207 20.7324 8.01371C21.1636 8.21437 21.7801 8.55305 22.1026 8.76545C22.425 8.97786 22.9709 9.41638 23.3169 9.7394C23.6619 10.0624 24.1324 10.5685 24.3617 10.8651C24.5921 11.1616 24.9821 11.7783 25.2291 12.2354C25.4761 12.6935 25.679 13.1223 25.68 13.1898C25.6819 13.2838 25.1801 13.3121 21.3204 13.3161L21.0264 12.9196C20.8647 12.7014 20.4677 12.3196 20.1443 12.0729C19.8209 11.8253 19.3573 11.5375 19.1152 11.4328C18.8721 11.328 18.387 11.1753 18.0371 11.0921C17.596 10.9884 17.1432 10.959 16.5669 10.9962C16.1082 11.0256 15.4692 11.1421 15.1457 11.2546C14.8223 11.3682 14.3587 11.5767 14.1166 11.7176C13.8735 11.8596 13.4325 12.2227 13.1365 12.5252C12.8336 12.8335 12.4622 13.3513 12.2887 13.7066C12.1191 14.0551 11.9094 14.6815 11.8231 15.0985C11.7369 15.5155 11.6663 16.0558 11.6663 16.2976C11.6663 16.5394 11.7359 17.0797 11.8212 17.4967C11.9065 17.9137 12.1152 18.5421 12.2867 18.8915C12.4739 19.2752 12.8307 19.7627 13.1855 20.12C13.5481 20.4851 14.0176 20.8306 14.4106 21.0234C14.7605 21.1947 15.3123 21.4012 15.6358 21.4835C15.9592 21.5657 16.5326 21.6323 16.9099 21.6313C17.2873 21.6303 17.8714 21.5637 18.2086 21.4844C18.7104 21.365 20.6667 20.2678 29.0388 15.4078C34.6588 12.1464 39.3996 9.37135 39.575 9.24117C39.7505 9.11196 39.9269 9.00625 39.9671 9.00821C40.0073 9.01016 43.371 7.07892 47.4404 4.71797C51.5099 2.35701 54.8903 0.428708 54.9501 0.432623ZM48.5186 21.4365C51.0698 21.4335 51.9578 21.3797 52.341 21.2994C52.6919 21.227 53.1986 21.0567 53.4681 20.9236C53.7377 20.7895 54.1738 20.4645 54.4365 20.2012C54.7001 19.9389 55.0373 19.4818 55.1863 19.1852C55.3352 18.8886 55.5342 18.36 55.6283 18.0106C55.742 17.5877 55.7998 17.0131 55.7998 16.2976C55.7998 15.5879 55.742 15.0036 55.6303 14.5846C55.5372 14.2352 55.3215 13.687 55.151 13.3679C54.9795 13.0479 54.6599 12.6074 54.4404 12.3891C54.2209 12.1698 53.8239 11.8713 53.5583 11.7245C53.2927 11.5786 52.7674 11.3917 52.39 11.3104C51.9382 11.2125 51.1609 11.1616 50.1112 11.1607L48.5186 11.1587V21.4365ZM33.2268 15.9061C35.1655 15.9442 35.882 15.9129 36.0711 15.862C36.2603 15.8101 36.5661 15.6672 36.7523 15.5439C36.9385 15.4196 37.1934 15.1651 37.3178 14.9762C37.4423 14.7873 37.5913 14.4133 37.6472 14.1442C37.7148 13.8231 37.7177 13.5148 37.656 13.2475L37.5629 12.8403L33.2268 15.9061Z" fill="white"/>
<path d="M147.581 19.3812C147.757 18.8702 147.901 18.4405 147.901 18.4268C147.902 18.4131 147.924 18.4023 147.951 18.4023C147.978 18.4023 148 20.0106 148 25.5478H144.227C141.776 25.5478 140.453 25.5136 140.453 25.45C140.453 25.3961 140.575 25.3266 140.723 25.2943C140.871 25.263 141.234 25.171 141.531 25.0898C141.828 25.0085 142.335 24.8304 142.658 24.6953C142.982 24.5592 143.533 24.2626 143.884 24.0365C144.234 23.8094 144.741 23.4326 145.011 23.1977C145.28 22.9627 145.691 22.5477 145.924 22.2756C146.157 22.0025 146.553 21.4495 146.804 21.0452C147.056 20.6419 147.406 19.8921 147.581 19.3812Z" fill="#ED900C"/>
<path fillRule="evenodd" clipRule="evenodd" d="M28.7203 7.34133L32.3223 7.34035C35.095 7.33937 36.1221 7.37363 36.7818 7.48718C37.2532 7.56842 37.8177 7.71231 38.0363 7.80628C38.2539 7.90025 38.4195 8.01379 38.4039 8.05882C38.3872 8.10287 36.2358 9.38514 33.6209 10.9072C31.006 12.4293 28.834 13.6587 28.7938 13.6401C28.7537 13.6215 28.7203 12.1964 28.7203 10.4736V7.34133ZM73.2351 9.8863C73.2998 9.8863 74.7141 12.8483 76.3754 16.469C78.0376 20.0897 79.4078 23.0957 79.4196 23.1495C79.4324 23.2092 78.9991 23.2592 77.1869 23.3081L75.7167 19.9713L70.7182 19.9664L69.2411 23.2474L68.166 23.2729C67.5749 23.2866 67.0604 23.2641 67.0212 23.2239C66.983 23.1828 68.2983 20.2649 69.9458 16.7382C71.5924 13.2124 72.9793 10.2279 73.0273 10.1065C73.0763 9.98517 73.1694 9.8863 73.2351 9.8863ZM72.2961 16.4445L71.5738 18.0596C74.0378 18.1017 74.7827 18.1017 74.819 18.086C74.8552 18.0713 74.5965 17.4204 74.2446 16.6403C73.8928 15.8601 73.5448 14.99 73.4723 14.7071C73.3998 14.4242 73.2949 14.1932 73.239 14.1932C73.1832 14.1932 73.1116 14.3361 73.0783 14.5113C73.0459 14.6865 72.6941 15.5567 72.2961 16.4445ZM101.283 9.91371C101.329 9.92546 102.751 12.909 104.445 16.5424C106.137 20.1768 107.523 23.1828 107.522 23.2229C107.521 23.2631 107.006 23.2856 105.231 23.2474L103.804 20.0173H98.7768L97.2792 23.3013L96.1766 23.2983C95.3611 23.2973 95.074 23.2641 95.074 23.174C95.074 23.1065 96.452 20.0907 98.1368 16.4719C99.8216 12.8532 101.237 9.90197 101.283 9.91371ZM101.159 14.4868C101.093 14.7296 100.734 15.6096 100.362 16.4445C99.9902 17.2795 99.6844 17.995 99.6834 18.0351C99.6815 18.0752 100.43 18.1085 101.347 18.1085H103.013C102.082 16.098 101.693 15.1847 101.547 14.7805L101.282 14.0464L101.159 14.4868ZM87.237 9.98419C87.2889 9.98419 87.4154 10.2152 87.5183 10.4981C87.6212 10.781 88.2543 12.4215 88.9247 14.1442C89.5951 15.867 90.244 17.5848 90.589 18.6469L90.9693 17.5212C91.179 16.9026 91.8474 15.0526 93.5626 10.4247H94.6368C95.5385 10.4247 95.7061 10.4482 95.6816 10.5715C95.6669 10.6527 94.5643 13.6372 93.2314 17.2051C91.8994 20.7729 90.7732 23.6801 90.7281 23.6654C90.6831 23.6507 90.0097 22.0532 89.2325 20.1151C88.4553 18.177 87.679 16.1949 87.1948 14.8294L86.9175 15.6614C86.7656 16.1195 86.002 18.1124 85.2219 20.0907C84.4407 22.0689 83.7693 23.6889 83.7292 23.6898C83.688 23.6918 82.5667 20.7729 81.2377 17.2051C79.9077 13.6372 78.8051 10.6527 78.7874 10.5715C78.76 10.4482 78.9246 10.4247 80.9035 10.4247L82.01 13.3612C82.6197 14.9763 83.3009 16.8263 83.933 18.6469L84.4417 17.1786C84.722 16.3711 85.4248 14.4555 86.003 12.9207C86.5813 11.3859 87.0743 10.0977 87.0988 10.0576C87.1243 10.0175 87.186 9.98419 87.237 9.98419ZM135.7 10.1193C136.516 10.1437 136.908 10.2025 137.317 10.363C137.613 10.4795 138.025 10.6948 138.233 10.8426C138.44 10.9895 138.739 11.3086 138.897 11.5503C139.054 11.7921 139.182 12.0681 139.181 12.1621C139.179 12.2786 138.917 12.4626 137.562 13.136L137.072 12.6476C136.729 12.306 136.448 12.1229 136.141 12.0417C135.898 11.9771 135.523 11.9507 135.308 11.984C135.092 12.0163 134.771 12.1308 134.597 12.2375C134.422 12.3442 134.19 12.5742 134.082 12.7494C133.975 12.9246 133.886 13.2329 133.886 13.4346C133.886 13.6362 133.947 13.923 134.022 14.0708C134.095 14.2186 134.338 14.5054 134.561 14.7071C134.782 14.9087 135.57 15.3795 136.312 15.7525C137.053 16.1254 137.917 16.6207 138.231 16.8537C138.546 17.0856 138.933 17.4752 139.093 17.717C139.252 17.9597 139.429 18.3337 139.487 18.549C139.545 18.7643 139.571 19.381 139.548 19.9194C139.515 20.6427 139.449 21.0196 139.292 21.3632C139.176 21.6186 138.865 22.0591 138.602 22.342C138.338 22.6249 137.886 22.9724 137.597 23.1133C137.308 23.2552 136.84 23.4207 136.557 23.4804C136.274 23.5411 135.701 23.59 135.283 23.591C134.865 23.591 134.27 23.5244 133.96 23.4442C133.649 23.3629 133.22 23.2083 133.004 23.1006C132.789 22.9929 132.423 22.7179 132.192 22.4888C131.961 22.2598 131.675 21.8751 131.558 21.6323C131.44 21.3906 131.316 21.0597 131.281 20.8982C131.222 20.6114 131.237 20.5967 132.013 20.2375C132.451 20.0359 132.841 19.8695 132.882 19.8675C132.922 19.8655 133.032 20.031 133.127 20.2346C133.221 20.4382 133.441 20.7455 133.617 20.9178C133.791 21.0901 134.112 21.3034 134.327 21.3935C134.55 21.4855 134.994 21.557 135.357 21.5589C135.817 21.5609 136.108 21.5041 136.41 21.3524C136.643 21.2349 136.93 20.9814 137.061 20.7759C137.19 20.5742 137.323 20.2434 137.355 20.0417C137.395 19.7911 137.357 19.5425 137.234 19.2587C137.136 19.0296 136.893 18.6997 136.695 18.5245C136.498 18.3493 135.818 17.9441 135.185 17.624C134.551 17.3039 133.769 16.8723 133.445 16.6647C133.122 16.4572 132.683 16.1137 132.471 15.9013C132.258 15.6888 131.975 15.2728 131.842 14.9763C131.648 14.5465 131.599 14.2803 131.6 13.6548C131.601 13.2075 131.668 12.6623 131.759 12.3823C131.854 12.0867 132.102 11.6844 132.386 11.3663C132.646 11.0766 133.055 10.7261 133.298 10.5881C133.54 10.4501 133.937 10.2808 134.18 10.2123C134.455 10.1349 135.027 10.0997 135.7 10.1193ZM108.6 10.3757L110.682 10.3747C111.827 10.3747 113.03 10.4237 113.353 10.4834C113.677 10.5431 114.139 10.6909 114.382 10.8133C114.624 10.9346 115.012 11.2488 115.245 11.5122C115.539 11.845 115.726 12.1856 115.86 12.627C115.978 13.0176 116.051 13.5462 116.051 13.9974C116.05 14.4017 115.978 14.9733 115.891 15.2699C115.802 15.5665 115.603 15.9952 115.449 16.2243C115.282 16.47 114.955 16.7597 114.652 16.931C114.368 17.0905 113.927 17.2667 113.206 17.4233L115.362 20.262C116.548 21.8232 117.496 23.1446 117.47 23.1985C117.44 23.2552 116.937 23.2964 115.117 23.2973L112.961 20.4059C111.775 18.8162 110.771 17.5163 110.731 17.5183C110.69 17.5202 110.658 18.8211 110.658 23.2964H108.6V10.3757ZM110.854 15.8572C112.031 15.7681 112.549 15.6977 112.765 15.6438C112.981 15.59 113.238 15.4725 113.338 15.3834C113.438 15.2944 113.581 15.0996 113.657 14.9518C113.732 14.804 113.794 14.4075 113.794 14.0708C113.794 13.6685 113.733 13.3416 113.616 13.1165C113.503 12.9001 113.277 12.6916 113.003 12.5527C112.701 12.399 112.31 12.3119 111.726 12.2688L110.884 12.2061L110.854 15.8572ZM118.718 10.3532L121.72 10.4012C124.41 10.4433 124.805 10.4697 125.506 10.6615C125.938 10.778 126.511 10.9934 126.781 11.1392C127.05 11.2851 127.558 11.6903 127.908 12.0397C128.259 12.3902 128.685 12.9403 128.856 13.2633C129.028 13.5863 129.261 14.1814 129.376 14.5847C129.493 14.9997 129.607 15.7652 129.64 16.3466C129.679 17.0739 129.648 17.6465 129.537 18.3043C129.42 18.9856 129.263 19.4701 128.947 20.1151C128.607 20.8111 128.375 21.1312 127.845 21.6372C127.436 22.0268 126.924 22.3978 126.536 22.5838C126.186 22.7521 125.546 22.9626 125.114 23.0526C124.549 23.1701 123.546 23.2337 118.695 23.3453L118.718 10.3532ZM120.852 21.2408C124.072 21.184 124.637 21.1361 124.968 21.0166C125.21 20.9295 125.648 20.6466 125.94 20.3882C126.231 20.1308 126.573 19.754 126.699 19.5523C126.825 19.3507 127.023 18.9102 127.137 18.5735C127.293 18.1164 127.348 17.7033 127.357 16.9339C127.363 16.3466 127.31 15.6761 127.232 15.3678C127.159 15.0722 126.993 14.62 126.866 14.3645C126.738 14.109 126.447 13.6979 126.218 13.4512C125.989 13.2046 125.581 12.8982 125.311 12.77C125.042 12.6417 124.534 12.491 124.184 12.4362C123.833 12.3804 122.941 12.3344 122.2 12.3344L120.852 12.3334V21.2408Z" fill="white"/>
<path d="M0.0392456 7.1455C0.0157229 7.17291 -0.000939041 5.57545 4.10721e-05 3.59722L0.00298141 0L3.80092 0.00783069C5.88954 0.011746 7.48908 0.0508995 7.35383 0.0939683C7.21955 0.137037 6.64619 0.319101 6.07968 0.499206C5.38184 0.720423 4.78201 0.996455 4.21747 1.35373C3.75975 1.64444 3.17757 2.06437 2.9247 2.28656C2.67183 2.50974 2.23666 2.97762 1.95733 3.32804C1.67799 3.67847 1.28007 4.25011 1.07424 4.60053C0.867441 4.95095 0.559685 5.65474 0.390126 6.16667C0.219586 6.67762 0.0617882 7.1181 0.0392456 7.1455Z" fill="#ED900C"/>
</svg>
